<svg width="22" height="13" viewBox="0 0 22 13" fill="none" xmlns="http://www.w3.org/2000/svg">
<path d="M21.7081 12.5127C21.6152 12.6121 21.5049 12.6909 21.3835 12.7447C21.2621 12.7985 21.132 12.8262 21.0006 12.8262C20.8691 12.8262 20.739 12.7985 20.6176 12.7447C20.4962 12.6909 20.3859 12.6121 20.2931 12.5127L11.0006 2.58043L1.70806 12.5127C1.52042 12.7133 1.26592 12.8259 1.00056 12.8259C0.735192 12.8259 0.480697 12.7133 0.293056 12.5127C0.105415 12.3122 5.23096e-09 12.0402 0 11.7566C-5.23096e-09 11.473 0.105415 11.201 0.293056 11.0005L10.2931 0.313437C10.3859 0.214072 10.4962 0.135246 10.6176 0.0814645C10.739 0.0276826 10.8691 0 11.0006 0C11.132 0 11.2621 0.0276826 11.3835 0.0814645C11.5049 0.135246 11.6152 0.214072 11.7081 0.313437L21.7081 11.0005C21.801 11.0998 21.8748 11.2176 21.9251 11.3474C21.9754 11.4771 22.0013 11.6162 22.0013 11.7566C22.0013 11.8971 21.9754 12.0361 21.9251 12.1659C21.8748 12.2956 21.801 12.4135 21.7081 12.5127Z" fill="#F1F4F9"/>
</svg>
