<svg width="17" height="14" viewBox="0 0 17 14" fill="none" xmlns="http://www.w3.org/2000/svg">
<path id="arrow-right" d="M16.5489 7.48679L10.3614 13.6743C10.2324 13.8033 10.0574 13.8758 9.875 13.8758C9.69256 13.8758 9.5176 13.8033 9.38859 13.6743C9.25959 13.5453 9.18712 13.3703 9.18712 13.1879C9.18712 13.0054 9.25959 12.8305 9.38859 12.7015L14.403 7.68788H0.9375C0.755164 7.68788 0.580295 7.61545 0.451364 7.48652C0.322433 7.35759 0.25 7.18272 0.25 7.00038C0.25 6.81805 0.322433 6.64318 0.451364 6.51425C0.580295 6.38532 0.755164 6.31288 0.9375 6.31288H14.403L9.38859 1.29929C9.25959 1.17029 9.18712 0.99532 9.18712 0.812882C9.18712 0.630445 9.25959 0.455479 9.38859 0.326476C9.5176 0.197473 9.69256 0.125 9.875 0.125C10.0574 0.125 10.2324 0.197473 10.3614 0.326476L16.5489 6.51398C16.6128 6.57783 16.6635 6.65365 16.6981 6.73711C16.7327 6.82057 16.7505 6.91003 16.7505 7.00038C16.7505 7.09073 16.7327 7.18019 16.6981 7.26365C16.6635 7.34712 16.6128 7.42294 16.5489 7.48679Z" fill="#F1F4F9"/>
</svg>
