<svg width="33" height="32" viewBox="0 0 33 32" fill="none" xmlns="http://www.w3.org/2000/svg">
<g id="Group">
<path id="Vector" d="M16.405 0C7.34595 0 0 7.34466 0 16.405C0 23.6533 4.70053 29.8026 11.2188 31.9718C12.0386 32.1236 12.3397 31.6159 12.3397 31.1826C12.3397 30.7915 12.3244 29.4991 12.3174 28.1283C7.75342 29.1207 6.79039 26.1927 6.79039 26.1927C6.04415 24.2965 4.96892 23.7924 4.96892 23.7924C3.48056 22.7742 5.08111 22.795 5.08111 22.795C6.7285 22.9108 7.59594 24.4856 7.59594 24.4856C9.05908 26.9936 11.4337 26.2685 12.3698 25.8495C12.517 24.789 12.9422 24.0654 13.4113 23.6558C9.76762 23.2408 5.9371 21.8342 5.9371 15.5483C5.9371 13.7573 6.57796 12.2938 7.62746 11.1449C7.45711 10.7317 6.89563 9.0632 7.78636 6.80351C7.78636 6.80351 9.16394 6.36259 12.2989 8.48512C13.6074 8.12152 15.0108 7.93934 16.405 7.93316C17.7992 7.93934 19.2037 8.12152 20.5147 8.48512C23.646 6.36259 25.0216 6.80351 25.0216 6.80351C25.9146 9.0632 25.3528 10.7317 25.1825 11.1449C26.2343 12.2938 26.8708 13.7572 26.8708 15.5483C26.8708 21.8491 23.033 23.2366 19.3801 23.6426C19.9684 24.1518 20.4927 25.1502 20.4927 26.6806C20.4927 28.8756 20.4737 30.6422 20.4737 31.1826C20.4737 31.6192 20.769 32.1307 21.6006 31.9696C28.1153 29.798 32.8099 23.6509 32.8099 16.405C32.8099 7.34466 25.465 0 16.405 0Z" fill="#616161"/>
<path id="Vector_2" d="M6.14251 23.369C6.10649 23.4504 5.97808 23.4749 5.86139 23.4191C5.74237 23.3655 5.67547 23.2544 5.71407 23.1725C5.74945 23.0887 5.87785 23.0652 5.99661 23.1216C6.11588 23.175 6.18381 23.2872 6.14251 23.369ZM6.94948 24.089C6.87125 24.1616 6.71827 24.1279 6.61444 24.0132C6.50714 23.8988 6.48707 23.746 6.56645 23.6723C6.64712 23.5998 6.79547 23.6337 6.90303 23.7482C7.01034 23.8638 7.03118 24.0158 6.94935 24.0891M7.50311 25.0102C7.4025 25.0801 7.23807 25.0146 7.13655 24.8687C7.03607 24.7229 7.03607 24.5479 7.13874 24.4778C7.24064 24.4077 7.4025 24.4707 7.50543 24.6155C7.60578 24.7638 7.60578 24.9388 7.50298 25.0103M8.43925 26.0772C8.34932 26.1763 8.15787 26.1498 8.01763 26.0144C7.8743 25.8822 7.83429 25.6944 7.92448 25.5952C8.01544 25.4959 8.20805 25.5238 8.34932 25.658C8.49175 25.79 8.53511 25.9792 8.43925 26.0772ZM9.64919 26.4375C9.60969 26.5659 9.42519 26.6243 9.2394 26.5697C9.05387 26.5135 8.93242 26.363 8.96986 26.2331C9.00845 26.1038 9.19373 26.043 9.38093 26.1014C9.5662 26.1574 9.68779 26.3067 9.64919 26.4375ZM11.0264 26.5902C11.031 26.7255 10.8734 26.8377 10.6784 26.8402C10.4821 26.8444 10.3235 26.7349 10.3214 26.6019C10.3214 26.4653 10.4755 26.3541 10.6715 26.3509C10.8666 26.347 11.0264 26.4557 11.0264 26.5902ZM12.3791 26.5383C12.4026 26.6703 12.2669 26.8059 12.0733 26.842C11.8829 26.8767 11.7066 26.7953 11.6823 26.6644C11.6586 26.5291 11.7968 26.3936 11.9868 26.3585C12.1809 26.3248 12.3544 26.4041 12.3791 26.5383Z" fill="#616161"/>
</g>
</svg>
