<svg width="33" height="32" viewBox="0 0 33 32" fill="none" xmlns="http://www.w3.org/2000/svg">
<path id="Vector" d="M30.5229 0H3.08717C1.83002 0 0.808594 1.03571 0.808594 2.30714V29.6929C0.808594 30.9643 1.83002 32 3.08717 32H30.5229C31.78 32 32.8086 30.9643 32.8086 29.6929V2.30714C32.8086 1.03571 31.78 0 30.5229 0ZM10.48 27.4286H5.73717V12.1571H10.4872V27.4286H10.48ZM8.10859 10.0714C6.58717 10.0714 5.35859 8.83571 5.35859 7.32143C5.35859 5.80714 6.58717 4.57143 8.10859 4.57143C9.62288 4.57143 10.8586 5.80714 10.8586 7.32143C10.8586 8.84286 9.63002 10.0714 8.10859 10.0714ZM28.2586 27.4286H23.5157V20C23.5157 18.2286 23.48 15.95 21.0515 15.95C18.58 15.95 18.2015 17.8786 18.2015 19.8714V27.4286H13.4586V12.1571H18.0086V14.2429H18.0729C18.7086 13.0429 20.2586 11.7786 22.5657 11.7786C27.3657 11.7786 28.2586 14.9429 28.2586 19.0571V27.4286Z" fill="#616161"/>
</svg>
