<svg width="122" height="56" viewBox="0 0 122 56" fill="none" xmlns="http://www.w3.org/2000/svg">
<mask id="mask0_197_63" style="mask-type:luminance" maskUnits="userSpaceOnUse" x="0" y="0" width="30" height="30">
<path d="M0 0H29.7733V29.731H0V0Z" fill="white"/>
</mask>
<g mask="url(#mask0_197_63)">
<path d="M2 29.0001H0V5.11941e-05L29 -5.11941e-05V2.00005H2V29.0001Z" fill="#020917"/>
</g>
<mask id="mask1_197_63" style="mask-type:luminance" maskUnits="userSpaceOnUse" x="92" y="25" width="30" height="31">
<path d="M92.3379 25.5601H122V55.0564H92.3379V25.5601Z" fill="white"/>
</mask>
<g mask="url(#mask1_197_63)">
<path d="M122 55H93V53H120V26H122V55Z" fill="#020917"/>
</g>
<path d="M17.7938 21.2925L19.8923 32.5149L21.9778 21.2925H23.3073L20.8959 34.1963H18.7714L16.334 21.2925H17.7938Z" fill="#020917"/>
<path d="M28.2502 21.2925V34.1963H26.8164V21.2925H28.2502Z" fill="#020917"/>
<path d="M34.0044 34.1963V22.5959H31.6191V21.2925H37.8234V22.5959H35.4382V34.1963H34.0044Z" fill="#020917"/>
<path d="M41.0996 24.4076C41.0996 23.4105 41.3407 22.6187 41.8295 22.0354C42.315 21.4554 43.058 21.1621 44.0584 21.1621C45.049 21.1621 45.7854 21.4554 46.2742 22.0354C46.7695 22.6187 47.0171 23.4105 47.0171 24.4076V31.0811C47.0171 32.0652 46.7695 32.8505 46.2742 33.4403C45.7854 34.0334 45.049 34.3266 44.0584 34.3266C43.058 34.3266 42.315 34.0334 41.8295 33.4403C41.3407 32.8505 41.0996 32.0652 41.0996 31.0811V24.4076ZM42.5203 31.1593C42.5203 31.7426 42.6442 32.1988 42.8983 32.5279C43.1492 32.8505 43.537 33.0102 44.0584 33.0102C44.5797 33.0102 44.961 32.8505 45.2054 32.5279C45.4563 32.1988 45.5834 31.7426 45.5834 31.1593V24.3294C45.5834 23.7396 45.4563 23.2834 45.2054 22.9608C44.961 22.6317 44.5797 22.4655 44.0584 22.4655C43.537 22.4655 43.1492 22.6317 42.8983 22.9608C42.6442 23.2834 42.5203 23.7396 42.5203 24.3294V31.1593Z" fill="#020917"/>
<path d="M53.6546 21.2925C54.6778 21.2925 55.4142 21.5466 55.8574 22.0485C56.3071 22.5535 56.5352 23.2835 56.5352 24.2382V25.294C56.5352 26.0076 56.4048 26.5844 56.1442 27.0275C55.89 27.4707 55.4859 27.777 54.932 27.9399C55.5218 28.1159 55.9389 28.432 56.1833 28.8914C56.4244 29.3541 56.5482 29.9341 56.5482 30.638V32.6453C56.5482 32.932 56.5613 33.2122 56.5873 33.4794C56.6134 33.7401 56.6851 33.9813 56.8089 34.1963H55.3621C55.2741 34.0138 55.209 33.8151 55.1666 33.5968C55.1308 33.3817 55.1145 33.0591 55.1145 32.6322V30.5989C55.1145 29.8788 54.9483 29.3802 54.6192 29.1C54.2966 28.823 53.8371 28.6829 53.2375 28.6829H52.2209V34.1963H50.7871V21.2925H53.6546ZM53.2897 27.3664C53.8697 27.3664 54.3194 27.2491 54.6322 27.0145C54.9515 26.7734 55.1145 26.3041 55.1145 25.6068V24.3685C55.1145 23.7788 55.0004 23.3356 54.7756 23.0391C54.5475 22.7458 54.1662 22.5959 53.6286 22.5959H52.2209V27.3664H53.2897Z" fill="#020917"/>
<path d="M68.4158 21.1621C69.3966 21.1621 70.1167 21.4554 70.5794 22.0354C71.0487 22.6187 71.2833 23.4007 71.2833 24.3816V24.7335H69.9277V24.3164C69.9277 23.7266 69.8104 23.2704 69.5758 22.9478C69.3412 22.6285 68.9632 22.4655 68.4418 22.4655C67.927 22.4655 67.5555 22.6285 67.3209 22.9478C67.0863 23.2704 66.969 23.7168 66.969 24.2903C66.969 24.7693 67.0765 25.1864 67.2948 25.5416C67.5099 25.9 67.7771 26.2291 68.0899 26.5322C68.4092 26.8385 68.7579 27.1318 69.1326 27.4185C69.5139 27.7053 69.8625 28.0246 70.1754 28.37C70.4947 28.7089 70.7652 29.0999 70.9835 29.5431C71.1985 29.9797 71.3093 30.4946 71.3093 31.0942C71.3093 32.0782 71.0682 32.8636 70.5925 33.4533C70.1232 34.0366 69.3868 34.3266 68.3897 34.3266C67.3991 34.3266 66.6692 34.0366 66.1999 33.4533C65.7307 32.8636 65.4961 32.0782 65.4961 31.0942V30.3642H66.8386V31.1724C66.8386 31.7654 66.9592 32.2216 67.2036 32.541C67.4545 32.8538 67.8357 33.0102 68.3506 33.0102C68.8719 33.0102 69.2532 32.8538 69.4976 32.541C69.7387 32.2216 69.8625 31.7654 69.8625 31.1724C69.8625 30.6966 69.7518 30.2828 69.5367 29.9341C69.3281 29.5789 69.0609 29.2531 68.7416 28.9566C68.419 28.6535 68.0703 28.357 67.6989 28.0702C67.3339 27.777 66.9885 27.4576 66.6692 27.1187C66.3564 26.7733 66.0891 26.3823 65.8741 25.9457C65.6558 25.5123 65.5482 24.9909 65.5482 24.3816C65.5482 23.391 65.7828 22.6089 66.2521 22.0354C66.7213 21.4554 67.4414 21.1621 68.4158 21.1621Z" fill="#020917"/>
<path d="M76.3947 21.2925V34.1963H74.9609V21.2925H76.3947Z" fill="#020917"/>
<path d="M80.2715 34.1963V21.2925H81.7052V32.8929H85.3939V34.1963H80.2715Z" fill="#020917"/>
<path d="M89.9637 21.2925L92.0622 32.5149L94.1477 21.2925H95.4772L93.0659 34.1963H90.9413L88.5039 21.2925H89.9637Z" fill="#020917"/>
<path d="M100.432 31.5895L99.9369 34.1963H98.6074L101.084 21.2925H103.169L105.633 34.1963H104.199L103.704 31.5895H100.432ZM100.628 30.3643H103.495L102.035 22.9087L100.628 30.3643Z" fill="#020917"/>
</svg>
