<svg width="28" height="32" viewBox="0 0 28 32" fill="none" xmlns="http://www.w3.org/2000/svg">
<path id="Vector" d="M27.5255 8.97538L18.9101 0.36C18.7957 0.245743 18.66 0.155141 18.5106 0.093371C18.3612 0.031601 18.201 -0.000126752 18.0394 3.80552e-07H3.27013C2.61729 3.80552e-07 1.99119 0.25934 1.52956 0.720968C1.06793 1.1826 0.808594 1.8087 0.808594 2.46154V29.5385C0.808594 30.1913 1.06793 30.8174 1.52956 31.279C1.99119 31.7407 2.61729 32 3.27013 32H25.424C26.0768 32 26.7029 31.7407 27.1645 31.279C27.6262 30.8174 27.8855 30.1913 27.8855 29.5385V9.84615C27.8856 9.68448 27.8539 9.52436 27.7921 9.37496C27.7304 9.22555 27.6398 9.08977 27.5255 8.97538ZM19.2701 4.20154L23.684 8.61539H19.2701V4.20154ZM25.424 29.5385H3.27013V2.46154H16.8086V9.84615C16.8086 10.1726 16.9383 10.4856 17.1691 10.7164C17.3999 10.9473 17.7129 11.0769 18.0394 11.0769H25.424V29.5385ZM20.5009 17.2308C20.5009 17.5572 20.3712 17.8702 20.1404 18.1011C19.9096 18.3319 19.5966 18.4615 19.2701 18.4615H9.42398C9.09756 18.4615 8.78451 18.3319 8.55369 18.1011C8.32288 17.8702 8.19321 17.5572 8.19321 17.2308C8.19321 16.9044 8.32288 16.5913 8.55369 16.3605C8.78451 16.1297 9.09756 16 9.42398 16H19.2701C19.5966 16 19.9096 16.1297 20.1404 16.3605C20.3712 16.5913 20.5009 16.9044 20.5009 17.2308ZM20.5009 22.1538C20.5009 22.4803 20.3712 22.7933 20.1404 23.0241C19.9096 23.2549 19.5966 23.3846 19.2701 23.3846H9.42398C9.09756 23.3846 8.78451 23.2549 8.55369 23.0241C8.32288 22.7933 8.19321 22.4803 8.19321 22.1538C8.19321 21.8274 8.32288 21.5144 8.55369 21.2836C8.78451 21.0527 9.09756 20.9231 9.42398 20.9231H19.2701C19.5966 20.9231 19.9096 21.0527 20.1404 21.2836C20.3712 21.5144 20.5009 21.8274 20.5009 22.1538Z" fill="#616161"/>
</svg>
