<svg width="33" height="32" viewBox="0 0 33 32" fill="none" xmlns="http://www.w3.org/2000/svg">
<path fill-rule="evenodd" clip-rule="evenodd" d="M27.6287 4.65039C24.635 1.65313 20.6535 0.00175781 16.4119 0C7.67168 0 0.558398 7.11309 0.554883 15.8557C0.553711 18.6504 1.28379 21.3785 2.67148 23.7832L0.421875 32L8.82793 29.7949C11.1441 31.0584 13.7518 31.7242 16.4055 31.725H16.4121C25.1514 31.725 32.2654 24.6113 32.2687 15.8684C32.2705 11.6313 30.6227 7.64746 27.6287 4.65039ZM16.4119 29.0471H16.4064C14.0416 29.0461 11.7223 28.4105 9.69844 27.21L9.21738 26.9242L4.2291 28.2328L5.56055 23.3693L5.24707 22.8707C3.92773 20.7723 3.23105 18.3469 3.23223 15.8566C3.23496 8.59004 9.14746 2.67813 16.4172 2.67813C19.9375 2.6793 23.2467 4.05195 25.735 6.54316C28.2232 9.03438 29.5928 12.3457 29.5916 15.8674C29.5885 23.1346 23.6764 29.0471 16.4119 29.0471ZM23.6412 19.1762C23.2451 18.9777 21.2971 18.0195 20.9338 17.8871C20.5709 17.7549 20.3064 17.6891 20.0426 18.0855C19.7783 18.482 19.0191 19.3746 18.7879 19.6389C18.5566 19.9033 18.3258 19.9365 17.9295 19.7381C17.5332 19.5398 16.2566 19.1213 14.7432 17.7715C13.5654 16.7209 12.7703 15.4234 12.5391 15.027C12.3082 14.6301 12.5371 14.4363 12.7129 14.2184C13.1418 13.6857 13.5713 13.1273 13.7033 12.8631C13.8355 12.5986 13.7693 12.3672 13.6701 12.1689C13.5713 11.9707 12.7789 10.0205 12.4488 9.22695C12.127 8.45469 11.8006 8.55898 11.5572 8.54688C11.3264 8.53535 11.0621 8.53301 10.7979 8.53301C10.5338 8.53301 10.1045 8.63203 9.74121 9.02891C9.37812 9.42559 8.35469 10.384 8.35469 12.3342C8.35469 14.2844 9.77441 16.1684 9.97246 16.4328C10.1705 16.6973 12.7664 20.6992 16.7408 22.4152C17.6861 22.8238 18.424 23.0674 18.9996 23.25C19.9488 23.5516 20.8123 23.509 21.4951 23.407C22.2564 23.2932 23.8391 22.4484 24.1695 21.523C24.4996 20.5975 24.4996 19.8043 24.4004 19.6389C24.3016 19.4736 24.0373 19.3746 23.6412 19.1762Z" fill="#616161"/>
</svg>
